<?xml version="1.0" encoding="UTF-8"?>
<svg xmlns="http://www.w3.org/2000/svg" xml:space="preserve" viewBox="5400 5700 31900 7150" style="shape-rendering:geometricPrecision; text-rendering:geometricPrecision; image-rendering:optimizeQuality; fill-rule:evenodd; clip-rule:evenodd">
 <defs>
  <style type="text/css">
   <![CDATA[
    .fil4 {fill:none}
    .fil1 {fill:#303030;fill-rule:nonzero}
    .fil2 {fill:#595959;fill-rule:nonzero}
    .fil3 {fill:#C1C1C1;fill-rule:nonzero}
    .fil0 {fill:#DC2751;fill-rule:nonzero}
   ]]>
  </style>
 </defs>
 <g id="Layer_x0020_1">
  <g id="Honest_x0020_Label_x0020_Honest_x0020_Label_x0020_Logo_x0020_final.pdf">
   <path class="fil0" d="M10255.01 6163.28l0 4039.74c0,143.19 -116.07,259.24 -259.23,259.24l-1456.76 0c-143.18,0 -259.23,-116.05 -259.23,-259.24l0 -4039.74c0,-143.17 116.05,-259.23 259.23,-259.23l1456.76 0c143.16,0 259.23,116.06 259.23,259.23z"/>
   <path class="fil1" d="M14466.12 5900.38l971.54 0c86.47,0 156.57,70.09 156.57,156.56l0 4251.7c0,86.47 -70.1,156.57 -156.57,156.57l-971.54 0c-86.47,0 -156.56,-70.1 -156.56,-156.57l0 -1362.82c0,-86.47 -70.1,-156.56 -156.57,-156.56l-782.43 0c-86.47,0 -156.57,70.09 -156.57,156.56l0 1362.82c0,86.47 -70.09,156.57 -156.56,156.57l-971.54 0c-86.47,0 -156.57,-70.1 -156.57,-156.57l0 -4251.7c0,-86.47 70.1,-156.56 156.57,-156.56l971.54 0c86.47,0 156.56,70.09 156.56,156.56l0 1441.06c0,86.46 70.1,156.56 156.57,156.56l782.43 0c86.47,0 156.57,-70.1 156.57,-156.56l0 -1441.06c0,-86.47 70.09,-156.56 156.56,-156.56z"/>
   <path class="fil1" d="M24782.69 5900.38l971.52 0c86.47,0 156.57,70.09 156.57,156.56l0 4251.7c0,86.47 -70.1,156.57 -156.57,156.57l-15.25 0c-36.45,0 -71.77,-12.72 -99.85,-35.97l-2276.02 -1884.19c-102.07,-84.51 -256.42,-11.91 -256.42,120.61l0 1642.98c0,86.47 -70.1,156.57 -156.57,156.57l-971.55 0c-86.47,0 -156.55,-70.1 -156.55,-156.57l0 -4251.7c0,-86.47 70.08,-156.56 156.55,-156.56 37.82,0 74.37,13.69 102.89,38.53l2285.24 1991.69c101.3,88.28 259.45,16.34 259.45,-118.04l0 -1755.61c0,-86.47 70.09,-156.56 156.56,-156.56z"/>
   <path class="fil1" d="M28069.1 7165.57l0 417.18c0,86.47 70.1,156.57 156.57,156.57l704.31 0c86.46,0 156.56,70.1 156.56,156.57l0 607.45c0,86.08 -69.5,156.03 -155.6,156.56l-706.24 4.38c-86.1,0.54 -155.6,70.49 -155.6,156.57l0 379.21c0,86.47 70.1,156.57 156.57,156.57l1344.12 0c86.47,0 156.56,70.1 156.56,156.56l0 795.48c0,86.46 -70.09,156.56 -156.56,156.56l-2628.73 0c-86.47,0 -156.57,-70.1 -156.57,-156.56l0 -4251.73c0,-86.48 70.1,-156.57 156.57,-156.57l2628.73 0c86.47,0 156.56,70.09 156.56,156.57l0 795.46c0,86.47 -70.09,156.57 -156.56,156.57l-1344.12 0c-86.47,0 -156.57,70.1 -156.57,156.56z"/>
   <path class="fil1" d="M30718.5 10034.94l0 -698.56c0,-113.83 117.14,-188.81 221.15,-142.5 326.3,145.29 756.92,242.19 1094.69,242.19 295.9,0 509.95,-100.73 509.95,-339.98 0,-144.81 -88.13,-251.83 -251.82,-314.8l-761.79 -283.32c-566.62,-201.45 -875.15,-667.35 -875.15,-1234.01 0,-786.97 623.32,-1359.9 1611.74,-1359.9 388.18,0 841.66,90.48 1109.02,217.56 53.8,25.57 87.21,80.79 87.21,140.38l0 697.54c0,111.61 -113.86,188.45 -216.51,144.61 -294.1,-125.61 -686.82,-199.03 -948.21,-199.03 -352.6,0 -453.33,157.4 -453.33,321.09 0,132.22 81.85,264.45 302.2,352.56l724.04 277.02c541.43,182.61 906.6,654.76 906.6,1240.31 0,824.75 -742.92,1366.18 -1655.82,1366.18 -437.89,0 -981.28,-121.27 -1316.42,-286.64 -53.63,-26.45 -87.56,-80.9 -87.56,-140.69z"/>
   <path class="fil1" d="M37062.21 6056.96l0 841.09c0,86.47 -70.09,156.57 -156.56,156.57l-528.1 0c-86.47,0 -156.57,70.09 -156.57,156.56l0 3097.46c0,86.47 -70.1,156.57 -156.56,156.57l-971.53 0c-86.47,0 -156.56,-70.1 -156.56,-156.57l0 -3097.46c0,-86.47 -70.1,-156.56 -156.57,-156.56l-528.1 0c-86.47,0 -156.57,-70.1 -156.57,-156.57l0 -841.09c0,-86.47 70.1,-156.57 156.57,-156.57l2654.01 0c86.47,0 156.56,70.1 156.56,156.57z"/>
   <path class="fil0" d="M5956.03 5904.05l1456.75 0c143.19,0 259.24,116.07 259.24,259.23l0 1456.76c0,143.18 -116.05,259.23 -259.24,259.23l-1456.75 0c-143.17,0 -259.23,-116.05 -259.23,-259.23l0 -1456.76c0,-143.16 116.06,-259.23 259.23,-259.23z"/>
   <path class="fil0" d="M5956.03 8487.04l1456.75 0c143.19,0 259.24,116.06 259.24,259.23l0 1456.75c0,143.19 -116.05,259.24 -259.24,259.24l-1456.75 0c-143.17,0 -259.23,-116.05 -259.23,-259.24l0 -1456.75c0,-143.17 116.06,-259.23 259.23,-259.23z"/>
   <polygon class="fil1" points="6282.52,12469.91 6266.99,12628.31 5702.29,12628.31 5710.22,12325.94 5702.29,11641.47 5923.88,11641.47 5913.97,12309.2 5915.63,12443.01 6262.37,12443.01 "/>
   <path class="fil1" d="M7034.45 12230.16l-130.44 1.64 -128.13 -1.64 138.04 -369.94 120.53 369.94zm3.97 -588.69l-238.1 0 -370.85 986.83 219.26 0 29.06 -138.07 32.37 -84.94 179.97 -1.64 203.09 1.64 30.38 91.84 27.41 131.17 222.57 0 -335.18 -986.83z"/>
   <path class="fil1" d="M8098.46 12000.92c-18.49,20 -47.22,34.76 -86.18,44.26l-139.04 -5.24 3.63 -232.2 75.63 0c64.07,0 109.98,8.54 136.71,25.57 24.44,16.08 36.66,42.65 36.66,81.67 0,37.39 -9.25,66.24 -27.41,85.93zm32.04 429.62c-36.33,23.29 -90.16,35.42 -160.82,35.42 -30.71,0 -63.08,-1.64 -96.77,-4.26l-3.63 -154.15 1.65 -96.42 161.15 -1.97c51.86,8.2 90.48,22.62 114.92,42.96 23.11,19.03 34.35,45.25 34.35,79.69 0,43.96 -16.85,76.41 -50.86,98.72zm96.43 -320.74c32.69,-19.36 59.78,-44.29 80.24,-74.12 28.73,-41.32 43.25,-90.2 43.25,-145.63 0,-81.33 -30.69,-144.62 -91.13,-188.24 -58.8,-42.65 -140.69,-63.97 -243.72,-63.97l-354 1.97 7.93 684.15 -7.93 301.38 16.18 0.98c83.88,3.62 172.72,5.59 263.2,5.59 307.45,0 463.32,-98.39 463.32,-292.54 0,-115.43 -59.78,-192.51 -177.33,-229.57z"/>
   <polygon class="fil1" points="9364.25,12443.01 9388.34,12466.95 9370.52,12628.3 8723.26,12628.3 8731.51,12325.93 8723.59,11641.47 9369.86,11641.47 9389.99,11668.37 9374.48,11829.06 9115.58,11818.9 8940.57,11820.86 8937.26,12036.01 9104.68,12037.64 9280.37,12031.43 9297.86,12059.29 9284.66,12221.31 9088.83,12215.07 8934.95,12216.71 8933.3,12309.53 8936.6,12448.91 9099.07,12450.87 "/>
   <polygon class="fil1" points="10260.5,12469.91 10244.98,12628.31 9679.95,12628.31 9688.2,12325.94 9680.28,11641.47 9901.54,11641.47 9891.63,12309.2 9893.61,12443.01 10240.03,12443.01 "/>
   <path class="fil2" d="M12830.92 11961.93c0,-54.46 -15.22,-95.03 -45.61,-121.62 -30.42,-26.6 -77.31,-41.16 -140.64,-43.72l-123.54 3.82 -5.69 357.29 152.03 3.8c108.96,-22.8 163.45,-89.33 163.45,-199.56zm107.37 -228.99c56.37,50.05 84.58,121.31 84.58,213.78 0,108.98 -36.11,194.81 -108.34,257.52 -72.21,62.71 -169.8,94.1 -292.67,94.1l-108.33 0 0 11.4 7.6 302.17 -182.45 0 7.6 -285.08 -7.6 -667.08 361.09 -1.9c102.64,0 182.14,25.03 238.52,75.08z"/>
   <path class="fil2" d="M13739.38 12246.08l-134.93 -416.21 -13.3 0 -153.95 416.21 150.14 1.89 152.04 -1.89zm290.78 364.89l-184.34 0 -24.7 -117.84 -34.22 -104.51 -212.86 -1.91 -190.04 1.91 -36.11 95.02 -26.61 127.33 -180.56 0 355.4 -952.15 212.86 0 321.19 952.15z"/>
   <path class="fil2" d="M14988.01 11707.27l-34.2 161.55 -17.12 5.7c-31.68,-24.04 -68.11,-43.06 -109.28,-57.03 -41.19,-13.91 -83.94,-20.9 -128.28,-20.9 -174.83,0 -262.26,108.98 -262.26,326.9 0,114.02 22.81,200.49 68.4,259.41 45.63,58.93 112.13,88.38 199.56,88.38 43.04,0 86.76,-6.96 131.12,-20.92 44.35,-13.92 83.63,-32.94 117.84,-57.01l19 9.5 -15.22 161.53c-84.87,39.29 -172.3,58.93 -262.25,58.93 -145.72,0 -257.22,-41.81 -334.5,-125.42 -77.29,-83.64 -115.91,-202.72 -115.91,-357.31 0,-158.35 40.86,-280.33 122.59,-365.84 81.71,-85.54 197.95,-128.29 348.72,-128.29 103.88,0 194.49,20.29 271.78,60.81z"/>
   <path class="fil2" d="M15683.58 12097.82c120.35,155.85 255.29,310.43 404.82,463.71l-3.82 26.61c-59.57,15.21 -119.1,25.94 -178.65,32.32l-26.58 -11.41c-158.41,-190.05 -288.88,-356.64 -391.52,-499.84l0 -13.32 305.99 -355.38 60.81 -89.33 209.06 -1.9 -380.1 448.52zm-201.44 203.35l7.6 302.18 -182.45 0 7.6 -285.07 -7.6 -667.09 184.34 0 -9.49 649.97z"/>
   <path class="fil2" d="M17105.14 11705.38l-55.12 172.94 -19 0c-48.17,-29.13 -91.56,-50.03 -130.18,-62.73 -38.67,-12.65 -81.42,-18.99 -128.29,-18.99 -98.83,0 -171.7,27.55 -218.57,82.67 -46.87,55.1 -70.3,144.15 -70.3,267 0,119.11 22.13,203.69 66.52,253.74 44.33,50.05 117.17,75.06 218.55,75.06 26.59,0 51.93,-2.52 76.03,-7.6 24.04,-5.05 53.83,-13.95 89.31,-26.62l0 -79.81 -1.9 -142.55 167.23 -11.4 -1.87 125.45 0 231.84c-129.26,39.28 -242.04,58.93 -338.32,58.93 -154.57,0 -271.13,-40.54 -349.68,-121.64 -78.57,-81.06 -117.83,-196.99 -117.83,-347.78 0,-163.45 44.67,-288.89 133.98,-376.3 89.33,-87.42 215.72,-131.12 379.16,-131.12 98.82,0 198.88,19.65 300.27,58.91z"/>
   <polygon class="fil2" points="17652.48,12308.79 17660.08,12610.96 17477.63,12610.96 17485.23,12325.9 17477.63,11658.81 17661.97,11658.81 "/>
   <polygon class="fil2" points="18910.61,12322.08 18916.32,12612.86 18718.64,12612.86 18268.24,11943.88 18256.85,11943.88 18254.94,12289.79 18260.62,12612.86 18095.28,12612.86 18102.9,12333.49 18097.19,11660.71 18291.05,11660.71 18741.45,12329.68 18756.66,12329.68 18750.97,11666.41 18920.11,11656.92 "/>
   <path class="fil2" d="M20050.9 11705.38l-55.11 172.94 -19 0c-48.18,-29.13 -91.57,-50.03 -130.19,-62.73 -38.67,-12.65 -81.42,-18.99 -128.28,-18.99 -98.84,0 -171.71,27.55 -218.56,82.67 -46.89,55.1 -70.31,144.15 -70.31,267 0,119.11 22.14,203.69 66.52,253.74 44.33,50.05 117.16,75.06 218.55,75.06 26.59,0 51.93,-2.52 76.02,-7.6 24.04,-5.05 53.84,-13.95 89.32,-26.62l0 -79.81 -1.91 -142.55 167.24 -11.4 -1.88 125.45 0 231.84c-129.25,39.28 -242.03,58.93 -338.31,58.93 -154.57,0 -271.14,-40.54 -349.68,-121.64 -78.57,-81.06 -117.84,-196.99 -117.84,-347.78 0,-163.45 44.67,-288.89 133.99,-376.3 89.33,-87.42 215.72,-131.12 379.15,-131.12 98.83,0 198.89,19.65 300.27,58.91z"/>
   <path class="fil2" d="M21386.94 11693.97l-28.51 172.94 -28.51 5.7c-73.49,-58.26 -143.19,-87.41 -209.04,-87.41 -46.9,0 -83.95,12.06 -111.18,36.11 -27.26,24.07 -40.86,51.97 -40.86,83.61 0,31.68 14.25,57.96 42.75,78.87 28.51,20.92 73.18,44.04 133.99,69.37 57.03,24.08 102.93,46.55 137.8,67.46 34.83,20.92 64.91,48.47 90.27,82.67 25.32,34.21 38.01,76.68 38.01,127.34 0,51.96 -13.64,100.1 -40.86,144.43 -27.26,44.38 -67.79,80.16 -121.65,107.37 -53.85,27.28 -118.77,40.88 -194.79,40.88 -45.62,0 -93.77,-5.08 -144.44,-15.21 -50.7,-10.13 -99.47,-25.34 -146.35,-45.6l24.71 -184.37 20.92 -11.39c36.71,36.76 80.1,65.56 130.17,86.47 50.05,20.9 95.99,31.35 137.79,31.35 45.61,0 82.67,-11.7 111.18,-35.15 28.5,-23.43 42.75,-52.26 42.75,-86.49 0,-34.2 -14.58,-61.76 -43.69,-82.67 -29.18,-20.9 -74.12,-44 -134.96,-69.37 -54.49,-24.03 -99.48,-46.56 -134.93,-67.45 -35.49,-20.91 -65.56,-48.76 -90.27,-83.61 -24.71,-34.84 -37.05,-77.59 -37.05,-128.3 0,-53.19 14.24,-101.34 42.74,-144.43 28.51,-43.05 69.67,-77.26 123.53,-102.63 53.85,-25.33 116.23,-38.01 187.22,-38.01 81.06,0 162.15,15.86 243.26,47.51z"/>
   <path class="fil2" d="M21942.81 11871.67c-42.45,51.31 -63.66,134.64 -63.66,249.92 0,127.96 20.91,219.2 62.72,273.67 41.8,54.49 108.33,81.71 199.53,81.71 92.47,0 160.26,-25.64 203.36,-76.96 43.06,-51.32 64.61,-135.24 64.61,-251.81 0,-126.69 -20.92,-217.29 -62.71,-271.78 -41.81,-54.46 -109.61,-81.72 -203.34,-81.72 -91.24,0 -158.09,25.65 -200.51,76.97zm541.64 -104.53c76.66,81.72 114.98,196.7 114.98,344.94 0,164.72 -40.87,291.42 -122.59,380.1 -81.73,88.7 -197.97,133.03 -348.72,133.03 -140.67,0 -248.96,-41.81 -324.99,-125.44 -76.04,-83.6 -114.03,-202.07 -114.03,-355.38 0,-159.64 40.86,-282.87 122.55,-369.65 81.73,-86.78 197.97,-130.2 348.76,-130.2 139.36,0 247.35,40.87 324.04,122.59z"/>
   <polygon class="fil2" points="23473.65,12474.13 23460.37,12610.96 22932.01,12610.96 22939.61,12325.9 22932.01,11658.81 23118.27,11658.81 23108.78,12308.79 23110.67,12458.92 23462.26,12458.92 "/>
   <path class="fil2" d="M24526.54 12136.79l-1.89 140.63c1.23,107.72 -32.95,191.33 -102.64,250.88 -69.68,59.57 -168.5,89.32 -296.45,89.32 -126.73,0 -223.03,-29.45 -288.89,-88.37 -65.9,-58.93 -97.58,-142.85 -95.04,-251.83l1.92 -146.33 -5.7 -478.94 184.34 0 -9.48 596.76c-1.31,144.45 72.18,216.66 220.43,216.66 73.45,0 129.24,-18.06 167.26,-54.16 38,-36.11 56.37,-90.29 55.09,-162.5l-7.58 -596.76 184.32 0 -5.69 484.64z"/>
   <polygon class="fil2" points="25554.7,11674.02 25543.3,11820.35 25358.95,11807.07 25279.14,11807.07 25275.34,12308.79 25281.03,12610.96 25098.6,12610.96 25106.17,12325.91 25102.37,11807.07 25024.45,11807.07 24836.32,11820.35 24823.01,11805.16 24836.32,11658.81 25545.19,11658.81 "/>
   <polygon class="fil2" points="26048.81,12308.79 26056.42,12610.96 25874,12610.96 25881.58,12325.9 25874,11658.81 26058.32,11658.81 "/>
   <path class="fil2" d="M26637.05 11871.67c-42.45,51.31 -63.65,134.64 -63.65,249.92 0,127.96 20.91,219.2 62.72,273.67 41.79,54.49 108.32,81.71 199.52,81.71 92.48,0 160.26,-25.64 203.37,-76.96 43.05,-51.32 64.61,-135.24 64.61,-251.81 0,-126.69 -20.92,-217.29 -62.72,-271.78 -41.81,-54.46 -109.6,-81.72 -203.33,-81.72 -91.24,0 -158.09,25.65 -200.52,76.97zm541.65 -104.53c76.65,81.72 114.98,196.7 114.98,344.94 0,164.72 -40.87,291.42 -122.59,380.1 -81.73,88.7 -197.97,133.03 -348.73,133.03 -140.66,0 -248.95,-41.81 -324.99,-125.44 -76.02,-83.6 -114.02,-202.07 -114.02,-355.38 0,-159.64 40.86,-282.87 122.55,-369.65 81.73,-86.78 197.97,-130.2 348.75,-130.2 139.37,0 247.38,40.87 324.05,122.59z"/>
   <polygon class="fil2" points="28447.27,12322.08 28453.01,12612.86 28255.32,12612.86 27804.91,11943.88 27793.52,11943.88 27791.6,12289.79 27797.31,12612.86 27631.97,12612.86 27639.57,12333.49 27633.86,11660.71 27827.71,11660.71 28278.14,12329.68 28293.35,12329.68 28287.65,11666.41 28456.77,11656.92 "/>
   <path class="fil2" d="M29788.99 11961.93c0,-54.46 -15.21,-95.03 -45.62,-121.62 -30.4,-26.6 -77.3,-41.16 -140.62,-43.72l-123.55 3.82 -5.69 357.29 152.03 3.8c108.96,-22.8 163.45,-89.33 163.45,-199.56zm107.39 -228.99c56.37,50.05 84.56,121.31 84.56,213.78 0,108.98 -36.1,194.81 -108.34,257.52 -72.21,62.71 -169.79,94.1 -292.68,94.1l-108.33 0 0 11.4 7.61 302.17 -182.42 0 7.58 -285.08 -7.58 -667.08 361.05 -1.9c102.64,0 182.15,25.03 238.55,75.08z"/>
   <path class="fil2" d="M30492.17 12130.13l165.35 5.71c100.05,-29.13 150.13,-91.85 150.13,-188.17 0,-51.93 -15.21,-90.27 -45.61,-114.96 -30.41,-24.71 -76.68,-38.31 -138.74,-40.86l-125.42 3.79 -5.71 334.49zm564.44 431.41l-1.88 22.8c-65.92,19.02 -123.55,30.42 -172.97,34.2l-28.48 -17.08c-92.52,-149.5 -157.76,-258.49 -195.76,-326.9l-167.27 1.89 0 26.6 7.63 302.19 -182.45 0 7.59 -285.08 -7.59 -667.08 361.07 -1.89c102.63,0 182.15,24.39 238.54,73.16 56.37,48.79 84.57,117.51 84.57,206.2 0,62.09 -16.81,118.47 -50.38,169.13 -33.56,50.71 -80.75,92.5 -141.58,125.45 73.45,110.22 156.45,222.35 248.96,336.37z"/>
   <path class="fil2" d="M31544.12 11871.67c-42.45,51.31 -63.65,134.64 -63.65,249.92 0,127.96 20.9,219.2 62.71,273.67 41.8,54.49 108.33,81.71 199.52,81.71 92.48,0 160.27,-25.64 203.37,-76.96 43.05,-51.32 64.61,-135.24 64.61,-251.81 0,-126.69 -20.92,-217.29 -62.71,-271.78 -41.81,-54.46 -109.61,-81.72 -203.34,-81.72 -91.24,0 -158.09,25.65 -200.51,76.97zm541.64 -104.53c76.66,81.72 114.98,196.7 114.98,344.94 0,164.72 -40.87,291.42 -122.59,380.1 -81.73,88.7 -197.97,133.03 -348.72,133.03 -140.67,0 -248.95,-41.81 -324.99,-125.44 -76.03,-83.6 -114.02,-202.07 -114.02,-355.38 0,-159.64 40.86,-282.87 122.54,-369.65 81.73,-86.78 197.97,-130.2 348.76,-130.2 139.37,0 247.37,40.87 324.04,122.59z"/>
   <polygon class="fil2" points="32932.44,12610.96 32713.88,12610.96 32392.68,11658.81 32578.96,11658.81 32605.57,11778.56 32822.23,12438.03 32831.7,12438.03 33074.99,11788.05 33101.59,11658.81 33282.13,11658.81 "/>
   <polygon class="fil2" points="33755.34,12308.79 33762.95,12610.96 33580.53,12610.96 33588.11,12325.9 33580.53,11658.81 33764.85,11658.81 "/>
   <path class="fil2" d="M34781.62 12393.35c48.13,-55.74 72.22,-139.97 72.22,-252.76 0,-117.83 -22.82,-203.66 -68.43,-257.52 -45.63,-53.83 -115.3,-80.77 -209.05,-80.77 -78.55,0 -143.82,2.56 -195.75,7.61l-7.62 497.94 3.81 155.82c95.04,8.89 160.87,13.3 197.64,13.3 89.97,0 159,-27.83 207.18,-83.61zm143.47 -627.18c77.92,77.31 116.88,188.17 116.88,332.6 0,168.51 -43.08,297.42 -129.22,386.75 -86.2,89.31 -209.07,133.99 -368.69,133.99 -120.41,0 -235.68,-3.18 -345.89,-9.51l7.58 -285.08 -7.58 -667.08 391.47 -7.6c145.72,0 257.52,38.65 335.44,115.91z"/>
   <polygon class="fil2" points="35994.13,12458.93 36007.44,12472.23 35992.23,12610.96 35382.18,12610.96 35389.76,12325.91 35382.18,11658.81 35997.94,11658.81 36009.33,11674.02 35996.02,11812.76 35754.67,11803.26 35564.62,11805.16 35560.81,12052.22 35743.24,12054.12 35908.6,12048.41 35918.1,12063.62 35906.7,12204.26 35728.07,12198.56 35558.92,12200.46 35556.99,12308.79 35560.81,12464.63 35737.55,12466.53 "/>
   <path class="fil2" d="M36512.94 12130.13l165.34 5.71c100.07,-29.13 150.15,-91.85 150.15,-188.17 0,-51.93 -15.22,-90.27 -45.62,-114.96 -30.41,-24.71 -76.68,-38.31 -138.74,-40.86l-125.42 3.79 -5.71 334.49zm564.45 431.41l-1.89 22.8c-65.91,19.02 -123.54,30.42 -172.97,34.2l-28.48 -17.08c-92.52,-149.5 -157.76,-258.49 -195.77,-326.9l-167.26 1.89 0 26.6 7.63 302.19 -182.45 0 7.59 -285.08 -7.59 -667.08 361.08 -1.89c102.62,0 182.14,24.39 238.54,73.16 56.36,48.79 84.56,117.51 84.56,206.2 0,62.09 -16.81,118.47 -50.38,169.13 -33.56,50.71 -80.75,92.5 -141.57,125.45 73.46,110.22 156.44,222.35 248.96,336.37z"/>
   <path class="fil1" d="M18744.74 5904.05c-621.51,0 -1184.8,248.86 -1596.03,652.12l800.51 800.51c206.28,-198.94 487.09,-321.4 795.52,-321.4 632.83,0 1147.88,515.04 1147.88,1147.86 0,308.44 -122.44,589.26 -321.41,795.53l800.52 800.52c403.25,-411.25 652.1,-974.53 652.1,-1596.05 0,-1258.65 -1020.42,-2279.09 -2279.09,-2279.09zm751.95 3145.16c-201.3,175.68 -464.48,281.82 -751.95,281.82 -632.82,0 -1147.87,-515.04 -1147.87,-1147.88 0,-287.45 106.15,-550.64 281.82,-751.92l-801.52 -801.52c-379.29,407.24 -611.52,952.9 -611.52,1553.44 0,1258.67 1020.43,2279.11 2279.09,2279.11 600.56,0 1146.21,-232.25 1553.45,-611.53l-801.5 -801.52z"/>
   <polygon class="fil3" points="37077.38,11073.49 5702.28,11073.49 5702.28,10948.99 37077.38,10948.99 "/>
   <path class="fil0" d="M11610.33 12134.89c0,185.1 -150.06,335.15 -335.15,335.15 -185.1,0 -335.15,-150.06 -335.15,-335.15 0,-185.1 150.06,-335.16 335.15,-335.16 185.1,0 335.15,150.07 335.15,335.16z"/>
  </g>
 </g>
</svg>
